<?xml version="1.0" encoding="UTF-8"?>
<svg width="1200pt" height="1200pt" version="1.1" viewBox="0 0 1200 1200" xmlns="http://www.w3.org/2000/svg">
 <path d="m998.26 525.84c-5.7734-13.344-22.055-20.699-45.77-20.699h-268.55c-6.8984 0-12.516-2.4609-15.781-6.9102-3.2773-4.4531-3.9609-10.547-1.8945-17.137l109.33-350.88c9.9258-31.848 11.137-53.219 3.5625-63.492-3.2383-4.4062-7.9219-6.7227-13.586-6.7227-12.492 0-29.734 11.664-51.18 34.668l-496.54 531.9c-16.199 17.34-21.926 34.246-16.117 47.617 5.7852 13.344 22.055 20.711 45.781 20.711h268.54c6.8984 0 12.516 2.4492 15.793 6.8984 3.2656 4.4531 3.9492 10.547 1.8828 17.148l-109.33 350.84c-9.9258 31.848-11.125 53.242-3.5625 63.516 3.2383 4.3789 7.9219 6.7188 13.586 6.7188 12.492 0 29.711-11.664 51.18-34.68l496.52-531.86c16.188-17.359 21.934-34.27 16.129-47.637z" fill="#fff"/>
</svg>
